<?xml version="1.0" encoding="utf-8"?>
<!-- Generator: Adobe Illustrator 21.0.0, SVG Export Plug-In . SVG Version: 6.00 Build 0)  -->
<svg version="1.1" id="圖層_1" xmlns="http://www.w3.org/2000/svg" xmlns:xlink="http://www.w3.org/1999/xlink" x="0px" y="0px"
	 viewBox="0 0 405.5 384.2" style="enable-background:new 0 0 405.5 384.2;" xml:space="preserve">
<style type="text/css">
	.st0{fill:#065B80;}
</style>
<title>fee</title>
<path class="st0" d="M305.8,240.5L195,298.2l47,24.6v42.2c0,10.2,8.5,19.1,18.3,19.1h91.5c9.8,0,17.1-8.9,17.1-19.1v-42.2l19.4-10.1
	v52.4h17.1v-72.4L305.8,240.5z M351.8,365.1c0,0.3,0.3,1.2,0,1.2h-91.4c-0.5-0.2-0.9-0.7-1.1-1.2v-33.3l46.3,24.2l46.3-24.2
	L351.8,365.1z M306.1,336l-72.3-37.8l72.3-37.8l72.3,37.8L306.1,336z"/>
<path class="st0" d="M304.6,199.4h15v48.1h-15V199.4z"/>
<path class="st0" d="M79.2,343.7V39.1c0-9.3-2.7-18-8.1-24h209.5c13.1-0.2,23.8,10.3,24,23.4c0,0.2,0,0.4,0,0.6v112.2h15V39.1
	c0.2-21.4-17-38.9-38.5-39.1c-0.2,0-0.4,0-0.5,0H40.1C18.3,0,0,17.2,0,39.1v72.1h64.1v161.3H0v71.1c0,21.8,18.3,40.1,40.1,40.1
	h176.3v-15H71.1C76.5,361.5,79.3,352.7,79.2,343.7z M15,96.2V39.1c-0.3-13.6,10.5-24.8,24-25s24.8,10.5,25,24c0,0.3,0,0.7,0,1v57.1
	H15z M15,343.7v-56.1h49.1v56.1c-0.3,13.6-11.5,24.3-25,24C25.9,367.5,15.3,356.8,15,343.7L15,343.7z M319.6,208.4h-15v-57.1h15
	V208.4z"/>
<path class="st0" d="M104.2,48.1h112.2v15H104.2V48.1z"/>
<path class="st0" d="M128.3,80.2h88.2v15h-88.2V80.2z"/>
<path class="st0" d="M279.5,48.1h-47.1v47.1h47.1L279.5,48.1z M264.5,80.1h-17v-17h17V80.1z"/>
<path class="st0" d="M104.2,128.2h112.2v15H104.2V128.2z"/>
<path class="st0" d="M279.5,128.2h-47.1v47.1h47.1L279.5,128.2z M264.5,160.3h-17v-17h17V160.3z"/>
<path class="st0" d="M104.2,208.4h112.2v15H104.2V208.4z"/>
<path class="st0" d="M128.3,240.5h88.2v15h-88.2V240.5z"/>
<path class="st0" d="M232.4,255.5h47.1v-47.1h-47.1V255.5z M247.5,223.4h17v17h-17V223.4z"/>
<path class="st0" d="M104.2,288.6h112.2v15H104.2V288.6z"/>
<path class="st0" d="M128.3,320.6h88.2v15h-88.2V320.6z"/>
<path class="st0" d="M136.3,160.3h16v15h-16V160.3z"/>
<path class="st0" d="M168.3,160.3h16v15h-16V160.3z"/>
<path class="st0" d="M200.4,160.3h16v15h-16V160.3z"/>
</svg>
