<svg id="圖層_1" data-name="圖層 1" xmlns="http://www.w3.org/2000/svg" viewBox="0 0 405.4 384.1"><defs><style>.cls-1{fill:#69777c;}</style></defs><title>deleteactivitynode</title><path class="cls-1" d="M305.8,240.5,195,298.2l47,24.6V365c0,10.2,8.5,19.1,18.3,19.1h91.5c9.8,0,17.1-8.9,17.1-19.1V322.8l19.4-10.1v52.4h17.1V292.7Zm46,124.6c0,.3.3,1.2,0,1.2H260.4a2.16,2.16,0,0,1-1.1-1.2V331.8L305.6,356l46.3-24.2ZM306.1,336l-72.3-37.8,72.3-37.8,72.3,37.8Z" transform="translate(0 0)"/><path class="cls-1" d="M304.6,199.4h15v48.1h-15Z" transform="translate(0 0)"/><path class="cls-1" d="M79.2,343.7V39.1c0-9.3-2.7-18-8.1-24H280.6a23.69,23.69,0,0,1,24,23.4V151.3h15V39.1A38.77,38.77,0,0,0,281.1,0H40.1C18.3,0,0,17.2,0,39.1v72.1H64.1V272.5H0v71.1c0,21.8,18.3,40.1,40.1,40.1H216.4v-15H71.1A40.86,40.86,0,0,0,79.2,343.7ZM15,96.2V39.1a24.51,24.51,0,1,1,49-1V96.2Zm0,247.5V287.6H64.1v56.1a24.56,24.56,0,0,1-49.1,0ZM319.6,208.4h-15V151.3h15Z" transform="translate(0 0)"/><path class="cls-1" d="M104.2,48.1H216.4v15H104.2Z" transform="translate(0 0)"/><path class="cls-1" d="M128.3,80.2h88.2v15H128.3Z" transform="translate(0 0)"/><path class="cls-1" d="M279.5,48.1H232.4V95.2h47.1Zm-15,32h-17v-17h17Z" transform="translate(0 0)"/><path class="cls-1" d="M104.2,128.2H216.4v15H104.2Z" transform="translate(0 0)"/><path class="cls-1" d="M279.5,128.2H232.4v47.1h47.1Zm-15,32.1h-17v-17h17Z" transform="translate(0 0)"/><path class="cls-1" d="M104.2,208.4H216.4v15H104.2Z" transform="translate(0 0)"/><path class="cls-1" d="M128.3,240.5h88.2v15H128.3Z" transform="translate(0 0)"/><path class="cls-1" d="M232.4,255.5h47.1V208.4H232.4Zm15.1-32.1h17v17h-17Z" transform="translate(0 0)"/><path class="cls-1" d="M104.2,288.6H216.4v15H104.2Z" transform="translate(0 0)"/><path class="cls-1" d="M128.3,320.6h88.2v15H128.3Z" transform="translate(0 0)"/><path class="cls-1" d="M136.3,160.3h16v15h-16Z" transform="translate(0 0)"/><path class="cls-1" d="M168.3,160.3h16v15h-16Z" transform="translate(0 0)"/><path class="cls-1" d="M200.4,160.3h16v15h-16Z" transform="translate(0 0)"/></svg>