<?xml version="1.0" encoding="utf-8"?>
<!-- Generator: Adobe Illustrator 21.0.0, SVG Export Plug-In . SVG Version: 6.00 Build 0)  -->
<svg version="1.1" id="Capa_1" xmlns="http://www.w3.org/2000/svg" xmlns:xlink="http://www.w3.org/1999/xlink" x="0px" y="0px"
	 viewBox="0 0 480 480" style="enable-background:new 0 0 480 480;" xml:space="preserve">
<style type="text/css">
	.st0{fill:#065B80;}
</style>
<g>
	<g>
		<path class="st0" d="M432,48H224c-26.5,0-48,21.5-48,48v96H48c-26.5,0-48,21.5-48,48v112c0,23.4,16.9,43.4,40,47.3V424
			c0,4.4,3.6,8,8,8c2.1,0,4.2-0.8,5.7-2.3L83.3,400H256c26.5,0,48-21.5,48-48v-96h92.7l29.7,29.7c3.1,3.1,8.2,3.1,11.3,0
			c1.5-1.5,2.3-3.5,2.3-5.7v-24.7c23.1-3.9,40-23.9,40-47.3V96C480,69.5,458.5,48,432,48z M288,352c0,17.7-14.3,32-32,32H80
			c-2.1,0-4.2,0.8-5.7,2.3L56,404.7V392c0-4.4-3.6-8-8-8c-17.7,0-32-14.3-32-32V240c0-17.7,14.3-32,32-32h208c17.7,0,32,14.3,32,32
			V352z M464,208c0,17.7-14.3,32-32,32c-4.4,0-8,3.6-8,8v12.7l-18.3-18.3c-1.5-1.5-3.5-2.3-5.7-2.3h-96c0-26.5-21.5-48-48-48h-64V96
			c0-17.7,14.3-32,32-32h208c17.7,0,32,14.3,32,32V208z"/>
	</g>
</g>
<g>
	<g>
		<path class="st0" d="M88,272c-13.3,0-24,10.7-24,24s10.7,24,24,24s24-10.7,24-24S101.3,272,88,272z M88,304c-4.4,0-8-3.6-8-8
			s3.6-8,8-8s8,3.6,8,8S92.4,304,88,304z"/>
	</g>
</g>
<g>
	<g>
		<path class="st0" d="M152,272c-13.3,0-24,10.7-24,24s10.7,24,24,24s24-10.7,24-24S165.3,272,152,272z M152,304c-4.4,0-8-3.6-8-8
			s3.6-8,8-8s8,3.6,8,8S156.4,304,152,304z"/>
	</g>
</g>
<g>
	<g>
		<path class="st0" d="M216,272c-13.3,0-24,10.7-24,24s10.7,24,24,24s24-10.7,24-24S229.3,272,216,272z M216,304c-4.4,0-8-3.6-8-8
			s3.6-8,8-8s8,3.6,8,8S220.4,304,216,304z"/>
	</g>
</g>
<g>
	<g>
		<rect x="224" y="96" class="st0" width="144" height="16"/>
	</g>
</g>
<g>
	<g>
		<rect x="384" y="96" class="st0" width="48" height="16"/>
	</g>
</g>
<g>
	<g>
		<rect x="224" y="128" class="st0" width="48" height="16"/>
	</g>
</g>
<g>
	<g>
		<rect x="288" y="128" class="st0" width="96" height="16"/>
	</g>
</g>
<g>
	<g>
		<rect x="224" y="160" class="st0" width="208" height="16"/>
	</g>
</g>
<g>
	<g>
		<rect x="304" y="192" class="st0" width="64" height="16"/>
	</g>
</g>
<g>
	<g>
		<rect x="384" y="192" class="st0" width="48" height="16"/>
	</g>
</g>
<g>
	<g>
		<rect x="400" y="128" class="st0" width="32" height="16"/>
	</g>
</g>
</svg>
