<svg id="圖層_1" data-name="圖層 1" xmlns="http://www.w3.org/2000/svg" viewBox="0 0 405.52 384.2"><defs><style>.cls-1{fill:#fff;}</style></defs><title>fee</title><path class="cls-1" d="M318.77,240.47,208,298.24l47,24.64V365.1c0,10.2,8.52,19.1,18.29,19.1h91.46c9.77,0,17.15-8.9,17.15-19.1V322.88l19.43-10.15V365.1h17.15V292.7Zm46,124.63c0,.33.32,1.19,0,1.19H273.33a2.1,2.1,0,0,1-1.14-1.19V331.83L318.49,356l46.3-24.18ZM319.06,336l-72.28-37.75,72.28-37.75,72.29,37.75Z" transform="translate(-13)"/><path class="cls-1" d="M317.59,199.39h15v48.09h-15Z" transform="translate(-13)"/><path class="cls-1" d="M92.16,343.67V39.08c0-9.27-2.71-18-8.07-24H293.55a23.72,23.72,0,0,1,24,24V151.3h15V39.08A38.77,38.77,0,0,0,293.55,0H53.08C31.25,0,13,17.25,13,39.08v72.14H77.13V272.53H13v71.14c0,21.82,18.25,40.08,40.08,40.08H229.42v-15H84.09A40.93,40.93,0,0,0,92.16,343.67ZM28,96.19V39.08a24.55,24.55,0,1,1,49.09,0V96.19Zm0,247.48V287.56H77.13v56.11a24.55,24.55,0,0,1-49.09,0ZM332.63,208.41h-15V151.3h15Z" transform="translate(-13)"/><path class="cls-1" d="M117.2,48.09H229.42v15H117.2Z" transform="translate(-13)"/><path class="cls-1" d="M141.25,80.16h88.17v15H141.25Z" transform="translate(-13)"/><path class="cls-1" d="M292.55,48.09H245.45V95.19h47.09Zm-15,32.06h-17v-17h17Z" transform="translate(-13)"/><path class="cls-1" d="M117.2,128.25H229.42v15H117.2Z" transform="translate(-13)"/><path class="cls-1" d="M292.55,128.25H245.45v47.09h47.09Zm-15,32.06h-17v-17h17Z" transform="translate(-13)"/><path class="cls-1" d="M117.2,208.41H229.42v15H117.2Z" transform="translate(-13)"/><path class="cls-1" d="M141.25,240.47h88.17v15H141.25Z" transform="translate(-13)"/><path class="cls-1" d="M245.45,255.5h47.09V208.41H245.45Zm15-32.06h17v17h-17Z" transform="translate(-13)"/><path class="cls-1" d="M117.2,288.56H229.42v15H117.2Z" transform="translate(-13)"/><path class="cls-1" d="M141.25,320.63h88.17v15H141.25Z" transform="translate(-13)"/><path class="cls-1" d="M149.27,160.31h16v15h-16Z" transform="translate(-13)"/><path class="cls-1" d="M181.33,160.31h16v15h-16Z" transform="translate(-13)"/><path class="cls-1" d="M213.39,160.31h16v15h-16Z" transform="translate(-13)"/></svg>