<svg id="Layer_1" data-name="Layer 1" xmlns="http://www.w3.org/2000/svg" viewBox="0 0 394.78 490.19"><defs><style>.cls-1{fill:#fff;}</style></defs><title>idea</title><path class="cls-1" d="M348.27,116.7,317,148a96.06,96.06,0,1,0,9.91,9.89l31.27-31.27,34.21,8.55a7,7,0,0,0,6.65-1.84L451.34,81a7,7,0,0,0-4.26-11.92l-37.57-3.72L405.79,27.8a7,7,0,0,0-11.92-4.26L341.56,75.86a7,7,0,0,0-1.84,6.65Zm-9.93,104a84.13,84.13,0,1,1-29.87-64.16l-30.88,30.88a40.7,40.7,0,1,0,9.92,9.88l30.87-30.86a83.61,83.61,0,0,1,20,54.27Zm-55.37,0a28.66,28.66,0,1,1-14-24.62l-19.68,19.68a7,7,0,0,0,9.9,9.9h0l19.71-19.71A28.44,28.44,0,0,1,283,220.67Zm109-100.05-22.21-5.55,36-36L431,81.56Zm1.39-76.72,2.5,25.26-36,36-5.55-22.21Z" transform="translate(-58.61 -10.9)"/><path class="cls-1" d="M162.92,321.59a85.61,85.61,0,0,1,27.38,63v64.69a26,26,0,0,0,25.94,25.94h32.38V495.1a6,6,0,0,0,12,0V475.22H293a26,26,0,0,0,25.94-25.94V384.5A87.4,87.4,0,0,1,347,320.93a135.77,135.77,0,0,0,43.13-102.8,134.19,134.19,0,0,0-28.51-79.53,6,6,0,0,0-9.47,7.37h0a122.27,122.27,0,0,1,26,72.46,123.77,123.77,0,0,1-39.31,93.7,99.77,99.77,0,0,0-31.72,66.45h-105A97.49,97.49,0,0,0,171,312.74,123.59,123.59,0,0,1,254.6,98.11h1.16a122.42,122.42,0,0,1,72.79,24.67,6,6,0,0,0,7.2-9.6,134.34,134.34,0,0,0-79.88-27.06H254.6a135.59,135.59,0,0,0-91.69,235.47ZM293,463.22H216.23a14,14,0,0,1-13.93-13.94v-2.57h68.75a6,6,0,0,0,0-12H202.3V418.2h16.91a6,6,0,0,0,0-12H202.3V390.59H306.93V406.2H239.85a6,6,0,0,0,0,12h67.08v16.51H291.68a6,6,0,0,0,0,12h15.24v2.57A14,14,0,0,1,293,463.22Z" transform="translate(-58.61 -10.9)"/><path class="cls-1" d="M259.35,62.77a6,6,0,0,0,6-6h0V16.9a6,6,0,0,0-12,0V56.77a6,6,0,0,0,6,6Z" transform="translate(-58.61 -10.9)"/><path class="cls-1" d="M404.74,200.9a6,6,0,0,0,0,12h39.87a6,6,0,0,0,0-12Z" transform="translate(-58.61 -10.9)"/><path class="cls-1" d="M64.61,212.9h39.87a6,6,0,0,0,0-12H64.61a6,6,0,0,0,0,12Z" transform="translate(-58.61 -10.9)"/><path class="cls-1" d="M141.29,102.07a6,6,0,0,0,8.49-8.49L118.67,62.47A6,6,0,1,0,110.18,71Z" transform="translate(-58.61 -10.9)"/></svg>