<?xml version="1.0" encoding="utf-8"?>
<!-- Generator: Adobe Illustrator 21.0.0, SVG Export Plug-In . SVG Version: 6.00 Build 0)  -->
<svg version="1.1" id="圖層_2" xmlns="http://www.w3.org/2000/svg" xmlns:xlink="http://www.w3.org/1999/xlink" x="0px" y="0px"
	 viewBox="0 0 512 512" style="enable-background:new 0 0 512 512;" xml:space="preserve">
<style type="text/css">
	.st0{fill:none;stroke:#000000;stroke-width:20;stroke-miterlimit:10;}
</style>
<path class="st0" d="M359.5,388h-186v-15.5c-0.3-25-10.5-48.9-28.4-66.4c-66-66.9-65.4-174.7,1.4-240.9s174.6-65.7,240.9,1
	s66,174.5-0.5,240.9c-17.5,17.3-27.4,40.8-27.4,65.4V388z"/>
<path d="M189,419h155c8.6,0,15.5,6.9,15.5,15.5S352.6,450,344,450H189c-8.6,0-15.5-6.9-15.5-15.5S180.5,419,189,419z"/>
<path d="M220,481h93c8.6,0,15.5,6.9,15.5,15.5S321.6,512,313,512h-93c-8.6,0-15.5-6.9-15.5-15.5S211.5,481,220,481z"/>
<path d="M158,171.1h31v31h-31V171.1z"/>
<path d="M220,202h31v186h31V202h31v-31h-93V202z"/>
<path d="M344,171.1h31v31h-31V171.1z"/>
</svg>
