<?xml version="1.0" encoding="utf-8"?>
<!-- Generator: Adobe Illustrator 21.0.0, SVG Export Plug-In . SVG Version: 6.00 Build 0)  -->
<svg version="1.1" id="Layer_1" xmlns="http://www.w3.org/2000/svg" xmlns:xlink="http://www.w3.org/1999/xlink" x="0px" y="0px"
	 viewBox="0 0 394.8 490.2" style="enable-background:new 0 0 394.8 490.2;" xml:space="preserve">
<style type="text/css">
	.st0{fill:#065B80;}
</style>
<title>idea</title>
<path class="st0" d="M289.7,105.8l-31.3,31.3c-40.2-34.6-100.8-30.1-135.5,10s-30.1,100.8,10,135.5s100.8,30.1,135.5-10
	c31.1-36.1,31.1-89.6-0.1-125.6l31.3-31.3l34.2,8.6c2.4,0.6,4.9-0.1,6.7-1.8l52.3-52.3c2.7-2.7,2.7-7.2,0-9.9
	c-1.1-1.1-2.7-1.9-4.3-2l-37.6-3.7l-3.7-37.6c-0.4-3.8-3.8-6.7-7.7-6.3c-1.6,0.2-3.1,0.9-4.3,2L283,65c-1.7,1.7-2.4,4.3-1.8,6.7
	L289.7,105.8z M279.7,209.8c0.1,46.5-37.5,84.2-84,84.3s-84.2-37.5-84.3-84s37.5-84.2,84-84.3c19.9,0,39.2,7,54.4,19.8L219,176.5
	c-18.4-12.9-43.8-8.4-56.7,10s-8.4,43.8,10,56.7c18.4,12.9,43.8,8.4,56.7-10c9.8-14.1,9.8-32.8-0.1-46.8l30.9-30.9
	C272.7,170.7,279.8,189.9,279.7,209.8L279.7,209.8z M224.4,209.8c0,15.8-12.8,28.7-28.7,28.7c-15.8,0-28.7-12.8-28.7-28.7
	c0-15.8,12.8-28.7,28.7-28.7c5.2,0,10.2,1.4,14.7,4l-19.7,19.7c-2.7,2.7-2.7,7.2,0,9.9s7.2,2.7,9.9,0l0,0l19.7-19.7
	C223,199.5,224.4,204.6,224.4,209.8L224.4,209.8z M333.4,109.7l-22.2-5.6l36-36l25.2,2.5L333.4,109.7z M334.8,33l2.5,25.3l-36,36
	l-5.5-22.2L334.8,33z"/>
<path class="st0" d="M104.3,310.7c17.5,16.3,27.4,39.1,27.4,63v64.7c0,14.3,11.6,25.9,25.9,25.9H190v19.9c0,3.3,2.7,6,6,6
	c3.3,0,6-2.7,6-6v-19.9h32.4c14.3,0,25.9-11.6,25.9-25.9v-64.8c0.2-24.2,10.3-47.2,28.1-63.6c28.4-26.5,44.1-63.9,43.1-102.8
	c-0.7-28.9-10.7-56.8-28.5-79.5c-2-2.6-5.8-3.1-8.4-1c-2.6,2-3.1,5.8-1,8.4l0,0c16.2,20.7,25.4,46.1,26,72.5
	c0.9,35.4-13.4,69.5-39.3,93.7c-18.7,17.3-30,41.1-31.7,66.5h-105c-1.5-25.1-12.6-48.7-31.1-65.8c-50.3-46.2-53.6-124.3-7.5-174.6
	c23.4-25.5,56.4-40,91.1-40h1.2c26.3,0.2,51.8,8.8,72.8,24.7c2.7,2,6.4,1.5,8.4-1.2c2-2.7,1.5-6.4-1.2-8.4
	c-23-17.4-51-26.8-79.9-27.1H196c-74.9,0-135.6,60.7-135.6,135.6C60.4,248.8,76.3,285,104.3,310.7L104.3,310.7z M234.4,452.3h-76.8
	c-7.7,0-13.9-6.3-13.9-13.9v-2.6h68.8c3.3,0,6-2.7,6-6s-2.7-6-6-6h-68.7v-16.5h16.9c3.3,0,6-2.7,6-6s-2.7-6-6-6h-16.9v-15.6h104.6
	v15.6h-67.1c-3.3,0-6,2.7-6,6s2.7,6,6,6h67.1v16.5h-15.3c-3.3,0-6,2.7-6,6s2.7,6,6,6h15.2v2.6C248.3,446.1,242.1,452.3,234.4,452.3z
	"/>
<path class="st0" d="M200.7,51.9c3.3,0,6-2.7,6-6l0,0l0,0V6c0-3.3-2.7-6-6-6s-6,2.7-6,6v39.9C194.7,49.2,197.4,51.9,200.7,51.9
	L200.7,51.9z"/>
<path class="st0" d="M346.1,190c-3.3,0-6,2.7-6,6s2.7,6,6,6H386c3.3,0,6-2.7,6-6s-2.7-6-6-6H346.1z"/>
<path class="st0" d="M6,202h39.9c3.3,0,6-2.7,6-6s-2.7-6-6-6H6c-3.3,0-6,2.7-6,6S2.7,202,6,202z"/>
<path class="st0" d="M82.7,91.2c2.3,2.3,6.1,2.3,8.5,0c2.3-2.3,2.3-6.1,0-8.5l0,0L60.1,51.6c-2.4-2.3-6.2-2.3-8.5,0
	c-2.3,2.4-2.3,6.2,0,8.5l0,0L82.7,91.2z"/>
</svg>
