<svg id="Capa_1" data-name="Capa 1" xmlns="http://www.w3.org/2000/svg" viewBox="0 0 477.85 477.87"><defs><style>.cls-1{fill:#fff;}</style></defs><title>sign-out</title><path class="cls-1" d="M426.66,0H204.79a51.2,51.2,0,0,0-51.2,51.2V153.6a17.07,17.07,0,0,0,34.13,0V51.2a17.07,17.07,0,0,1,17.07-17.07H426.66A17.07,17.07,0,0,1,443.73,51.2V426.67a17.07,17.07,0,0,1-17.07,17.07H204.79a17.07,17.07,0,0,1-17.07-17.07V324.27a17.07,17.07,0,0,0-34.13,0v102.4a51.2,51.2,0,0,0,51.2,51.2H426.66a51.2,51.2,0,0,0,51.2-51.2V51.2A51.2,51.2,0,0,0,426.66,0Z" transform="translate(-0.01)"/><path class="cls-1" d="M341.32,221.87H58.26l56.2-56.2a17.07,17.07,0,0,0-24.13-24.13L5,226.87a16.87,16.87,0,0,0-3.69,5.55A17.12,17.12,0,0,0,5,251l85.33,85.33a17.07,17.07,0,1,0,24.55-23.71l-.42-.42L58.26,256H341.32a17.07,17.07,0,1,0,0-34.13Z" transform="translate(-0.01)"/></svg>