<?xml version="1.0" encoding="utf-8"?>
<!-- Generator: Adobe Illustrator 21.0.0, SVG Export Plug-In . SVG Version: 6.00 Build 0)  -->
<svg version="1.1" id="圖層_1" xmlns="http://www.w3.org/2000/svg" xmlns:xlink="http://www.w3.org/1999/xlink" x="0px" y="0px"
	 viewBox="0 0 496 496" style="enable-background:new 0 0 496 496;" xml:space="preserve">
<style type="text/css">
	.st0{fill:#FF004F;}
</style>
<path class="st0" d="M240,0h16v48h-16V0z"/>
<path class="st0" d="M78.3,73.6l11.3-11.3l33.9,33.9l-11.3,11.3L78.3,73.6z"/>
<path class="st0" d="M16,224h48v16H16V224z"/>
<path class="st0" d="M432,224h48v16h-48V224z"/>
<path class="st0" d="M372.4,96.2l33.9-33.9l11.3,11.3l-33.9,33.9L372.4,96.2z"/>
<path class="st0" d="M358.3,358.5C395,326.6,416,280.5,416,232c0-46.6-18.6-89.8-52.4-121.9c-33.8-32-78-48.3-124.7-45.9
	c-87.2,4.6-157,76.7-158.9,164.1c-1.1,49.4,19.6,96.6,56.7,129.4c3.8,3.3,7.1,7,10,10.9C136,371,128,380.6,128,392
	c0,6.2,2.4,11.7,6.2,16c-3.8,4.3-6.2,9.8-6.2,16c0,13.2,10.8,24,24,24h17.6c15,29.4,45.1,48,78.4,48c33.2,0,63.4-18.7,78.4-48H344
	c13.2,0,24-10.8,24-24c0-6.2-2.4-11.7-6.2-16c3.8-4.3,6.2-9.8,6.2-16c0-11.5-8.1-21.1-19-23.4C351.8,364.9,354.8,361.6,358.3,358.5z
	 M96,228.7c1.7-79.1,64.8-144.3,143.7-148.4c42.2-2.2,82.3,12.5,112.8,41.5c30.6,29,47.4,68.2,47.4,110.3c0,43.9-19,85.6-52.2,114.5
	c-7,6.1-12.8,13.4-17.3,21.5H165.3c-4.7-8.3-10.6-15.8-18-22.3C113.8,316.1,95.1,273.4,96,228.7z M248,480
	c-24.4,0-46.5-12.3-59.7-32h119.4C294.5,467.7,272.3,480,248,480z M344,432H152c-4.4,0-8-3.6-8-8s3.6-8,8-8h192c4.4,0,8,3.6,8,8
	S348.4,432,344,432z M352,392c0,4.4-3.6,8-8,8H152c-4.4,0-8-3.6-8-8s3.6-8,8-8h192C348.4,384,352,387.6,352,392z"/>
<path class="st0" d="M152,264c0,13.2,10.8,24,24,24h24v-15.1c0-4.3,2.9-8.1,6.6-8.7c2.4-0.4,4.8,0.2,6.6,1.8
	c1.8,1.5,2.8,3.8,2.8,6.1v16h136c13.2,0,24-10.8,24-24v-24h-24c-2.4,0-4.6-1-6.1-2.8c-1.5-1.8-2.2-4.2-1.8-6.6
	c0.6-3.7,4.4-6.6,8.7-6.6H376v-24c0-13.2-10.8-24-24-24h-16v-7.1c0-12.1-8.6-22.7-20-24.5c-7-1.1-14.1,0.8-19.5,5.4
	c-5.4,4.6-8.5,11.2-8.5,18.3v8h-72v15.2c0,4.3-2.9,8.1-6.6,8.7c-2.4,0.4-4.8-0.2-6.6-1.8c-1.8-1.5-2.8-3.8-2.8-6.1v-16h-24
	c-13.2,0-24,10.8-24,24v8h-7.1c-12.1,0-22.7,8.6-24.5,20c-1.1,7,0.8,14.1,5.4,19.5c4.6,5.4,11.2,8.5,18.3,8.5h8V264z M264,192h40
	v-24c0-2.4,1-4.6,2.8-6.1c1.8-1.5,4.1-2.2,6.6-1.8c3.7,0.6,6.6,4.4,6.6,8.7V192h32c4.4,0,8,3.6,8,8v8h-7.1c-12.1,0-22.7,8.6-24.5,20
	c-1.1,7,0.8,14.1,5.4,19.5c4.6,5.4,11.2,8.5,18.3,8.5h8v8c0,4.4-3.6,8-8,8h-88v-16h8c7,0,13.7-3.1,18.3-8.5
	c4.6-5.4,6.5-12.5,5.4-19.5c-1.9-11.4-12.4-20-24.5-20H264V192z M144,240c-2.4,0-4.6-1-6.1-2.8c-1.5-1.8-2.2-4.2-1.8-6.6
	c0.6-3.7,4.4-6.6,8.7-6.6H168v-24c0-4.4,3.6-8,8-8h8c0,7.1,3.1,13.7,8.5,18.3c5.4,4.6,12.5,6.5,19.5,5.4c11.2-1.8,19.6-11.9,20-23.7
	h16v32h23.1c4.3,0,8.1,2.9,8.7,6.6c0.4,2.4-0.2,4.8-1.8,6.6c-1.5,1.8-3.7,2.8-6.1,2.8h-24v32h-16c0-7.1-3.1-13.7-8.5-18.3
	c-5.4-4.6-12.5-6.5-19.5-5.4c-11.2,1.8-19.6,11.9-20,23.7h-8c-4.4,0-8-3.6-8-8v-24H144z"/>
</svg>
