<svg id="Layer_1" data-name="Layer 1" xmlns="http://www.w3.org/2000/svg" viewBox="0 0 985.33 512"><defs><style>.cls-1{font-size:72px;font-family:AdobeMingStd-Light-B5pc-H, Adobe Ming Std;}</style></defs><title>tag-personal</title><path d="M34.88,0A34.69,34.69,0,0,0,0,34.87,35,35,0,0,0,10.32,59.59c2.8,2.8,8.85,7.89,12.2,10.68A8.29,8.29,0,0,0,33.12,57.5c-5.26-4.36-9.4-8-11.07-9.65a18.47,18.47,0,0,1-5.46-13v-.08A18.09,18.09,0,0,1,34.81,16.59a18.47,18.47,0,0,1,13,5.46C51,25.18,59.53,35.94,70.3,51.36A52.55,52.55,0,0,0,44.2,96.73V218.19a61,61,0,0,0,18,43.4L305,504.39a26,26,0,0,0,36.76,0L504.39,341.72a26,26,0,0,0,0-36.76L261.6,62.17a61,61,0,0,0-43.4-18H96.74a52.52,52.52,0,0,0-10.47,1.05C74.19,27.69,64.09,14.81,59.59,10.32A34.94,34.94,0,0,0,34.88,0ZM218.2,60.78A44.5,44.5,0,0,1,249.87,73.9L492.66,316.69a9.41,9.41,0,0,1,0,13.29L330,492.66a9.4,9.4,0,0,1-13.3,0L73.91,249.87a44.5,44.5,0,0,1-13.12-31.67V96.73A36,36,0,0,1,79.65,65.11C86.14,74.91,93,85.88,99.82,97.52c-.4.36-.79.73-1.18,1.12a34.88,34.88,0,1,0,15.75-9c-5.89-10.12-11.92-19.84-17.74-28.82H218.2ZM127,130.68a8.29,8.29,0,0,0,3.68-11.14q-3.67-7.29-7.6-14.5a18.26,18.26,0,1,1-14.69,7.7q3.83,7,7.47,14.26A8.29,8.29,0,0,0,127,130.68Z" transform="translate(-0.01 0)"/><path d="M262,378.52a12.67,12.67,0,0,1-8.35-3.14c-8.73-7.63-17.14-14.8-24.56-21.13l0,0c-21.76-18.54-40.55-34.56-53.63-50.33C160.81,286.25,154,269.53,154,251.26c0-17.75,6.09-34.12,17.14-46.11a58.08,58.08,0,0,1,43.21-18.81,54.33,54.33,0,0,1,33.94,11.72A69.44,69.44,0,0,1,262,212.39a69.44,69.44,0,0,1,13.72-14.33,54.33,54.33,0,0,1,33.94-11.72,58.09,58.09,0,0,1,43.21,18.81c11,12,17.13,28.36,17.13,46.11,0,18.27-6.81,35-21.42,52.62-13.07,15.78-31.86,31.79-53.62,50.33-7.44,6.33-15.86,13.52-24.61,21.16A12.68,12.68,0,0,1,262,378.52ZM214.34,199a45.57,45.57,0,0,0-33.9,14.73c-8.89,9.64-13.79,23-13.79,37.53,0,15.36,5.71,29.1,18.51,44.55,12.37,14.93,30.78,30.62,52.09,48.78l0,0c7.45,6.35,15.9,13.55,24.69,21.23,8.84-7.7,17.3-14.91,24.77-21.27,21.31-18.16,39.71-33.84,52.09-48.78,12.8-15.45,18.51-29.19,18.51-44.55,0-14.56-4.9-27.89-13.79-37.53A45.57,45.57,0,0,0,309.66,199a42,42,0,0,0-26.2,9.07A61.4,61.4,0,0,0,268.86,225a8,8,0,0,1-13.72,0,61.34,61.34,0,0,0-14.6-16.89A42,42,0,0,0,214.34,199Z" transform="translate(-0.01 0)"/><path d="M625.64,23.5a26.15,26.15,0,0,0-26.29,26.29,26.35,26.35,0,0,0,7.78,18.63c2.11,2.11,6.67,6,9.2,8.05a6.25,6.25,0,0,0,8-9.62c-4-3.29-7.08-6-8.35-7.27a13.92,13.92,0,0,1-4.11-9.84v-.06A13.64,13.64,0,0,1,625.58,36a13.92,13.92,0,0,1,9.84,4.11c2.36,2.36,8.8,10.47,16.92,22.1a39.62,39.62,0,0,0-19.68,34.2V188a46,46,0,0,0,13.55,32.72l183,183a19.59,19.59,0,0,0,27.71,0L979.61,281.13a19.62,19.62,0,0,0,0-27.71l-183-183a46,46,0,0,0-32.72-13.55H672.27a39.59,39.59,0,0,0-7.89.79c-9.1-13.23-16.72-22.95-20.11-26.33A26.34,26.34,0,0,0,625.64,23.5ZM763.84,69.33a33.55,33.55,0,0,1,23.88,9.89l183,183a7.1,7.1,0,0,1,0,10L848.13,394.92a7.09,7.09,0,0,1-10,0l-183-183A33.55,33.55,0,0,1,645.17,188V96.43a27.12,27.12,0,0,1,14.22-23.84C664.28,80,669.48,88.25,674.6,97c-.3.27-.6.55-.89.84a26.3,26.3,0,1,0,11.88-6.81c-4.44-7.63-9-15-13.38-21.72h91.63ZM695.09,122a6.25,6.25,0,0,0,2.78-8.4q-2.77-5.5-5.73-10.93a13.76,13.76,0,1,1-11.07,5.8q2.89,5.31,5.63,10.75A6.25,6.25,0,0,0,695.09,122Z" transform="translate(-0.01 0)"/><path d="M792.34,308.87a9.55,9.55,0,0,1-6.3-2.37c-6.58-5.75-12.92-11.16-18.52-15.93l0,0c-16.41-14-30.57-26.05-40.43-37.95-11-13.3-16.15-25.9-16.15-39.68,0-13.38,4.59-25.73,12.92-34.76A43.79,43.79,0,0,1,756.41,164,41,41,0,0,1,782,172.82a52.35,52.35,0,0,1,10.34,10.8,52.35,52.35,0,0,1,10.35-10.8A41,41,0,0,1,828.27,164a43.79,43.79,0,0,1,32.57,14.18c8.33,9,12.92,21.38,12.92,34.76,0,13.77-5.13,26.38-16.15,39.67-9.86,11.89-24,24-40.43,37.95-5.61,4.78-12,10.19-18.55,16A9.56,9.56,0,0,1,792.34,308.87ZM756.41,173.53a34.36,34.36,0,0,0-25.56,11.1c-6.7,7.27-10.39,17.32-10.39,28.3,0,11.58,4.3,21.94,14,33.59,9.33,11.26,23.21,23.08,39.27,36.78l0,0c5.62,4.79,12,10.21,18.61,16,6.67-5.81,13-11.24,18.67-16,16.07-13.69,29.94-25.52,39.27-36.77,9.65-11.65,14-22,14-33.59,0-11-3.69-21-10.39-28.3a34.35,34.35,0,0,0-25.56-11.1,31.64,31.64,0,0,0-19.75,6.84,46.29,46.29,0,0,0-11,12.74,6,6,0,0,1-10.34,0,46.25,46.25,0,0,0-11-12.74A31.64,31.64,0,0,0,756.41,173.53Z" transform="translate(-0.01 0)"/><text class="cls-1" transform="translate(648.34 488.5)">個人收藏</text></svg>