<?xml version="1.0" encoding="utf-8"?>
<!-- Generator: Adobe Illustrator 21.0.0, SVG Export Plug-In . SVG Version: 6.00 Build 0)  -->
<svg version="1.1" id="Layer_1" xmlns="http://www.w3.org/2000/svg" xmlns:xlink="http://www.w3.org/1999/xlink" x="0px" y="0px"
	 viewBox="0 0 512 512" style="enable-background:new 0 0 512 512;" xml:space="preserve">
<g>
	<g>
		<path d="M34.9,0c-9.3,0-18.1,3.6-24.7,10.2S0,25.5,0,34.9C0,44.2,3.7,53,10.3,59.6c2.8,2.8,8.8,7.9,12.2,10.7
			c3.5,2.9,8.8,2.4,11.7-1.1c2.9-3.5,2.4-8.8-1.1-11.7c-5.3-4.4-9.4-8-11.1-9.6c-3.5-3.5-5.4-8.1-5.5-13c0,0,0-0.1,0-0.1
			c0-4.9,1.9-9.4,5.3-12.8c3.4-3.4,8-5.3,12.9-5.3c4.9,0,9.6,2,13,5.5c3.1,3.1,11.7,13.9,22.4,29.3c-15.6,9.1-26.1,26-26.1,45.4
			v121.5c0,16.4,6.4,31.8,18,43.4L305,504.4c4.9,4.9,11.4,7.6,18.4,7.6s13.5-2.7,18.4-7.6l162.7-162.7c5.1-5.1,7.6-11.7,7.6-18.4
			s-2.5-13.3-7.6-18.4L261.6,62.2c-11.6-11.6-27-18-43.4-18H96.7c-3.6,0-7.1,0.4-10.5,1.1C74.2,27.7,64.1,14.8,59.6,10.3
			C53,3.7,44.2,0,34.9,0z M218.2,60.8c12,0,23.2,4.7,31.7,13.1l242.8,242.8c3.7,3.7,3.7,9.6,0,13.3L330,492.7
			c-1.8,1.8-4.1,2.8-6.6,2.8s-4.9-1-6.6-2.8L73.9,249.9c-8.5-8.5-13.1-19.7-13.1-31.7V96.7c0-13.6,7.6-25.5,18.9-31.6
			c6.5,9.8,13.4,20.8,20.2,32.4c-0.4,0.4-0.8,0.7-1.2,1.1c-13.6,13.6-13.6,35.7,0,49.3s35.7,13.6,49.3,0
			c6.8-6.8,10.2-15.7,10.2-24.6c0-8.9-3.4-17.8-10.2-24.6c-9.1-9.1-21.9-12.1-33.5-9c-5.9-10.1-11.9-19.8-17.7-28.8c0,0,0.1,0,0.1,0
			L218.2,60.8L218.2,60.8z M127,130.7c2.9-1.5,4.6-4.4,4.6-7.4c0-1.3-0.3-2.5-0.9-3.7c-2.4-4.9-5-9.7-7.6-14.5
			c4.7,0,9.5,1.7,13.1,5.3c7.1,7.1,7.1,18.7,0,25.8c-7.1,7.1-18.7,7.1-25.8,0c-3.6-3.6-5.3-8.2-5.3-12.9c0-3.7,1.1-7.4,3.4-10.5
			c2.6,4.7,5.1,9.5,7.5,14.3C117.9,131.1,122.9,132.7,127,130.7z"/>
	</g>
</g>
<path d="M262,378.5c-3.1,0-6-1.1-8.4-3.1c-8.7-7.6-17.1-14.8-24.6-21.1l0,0c-21.8-18.5-40.6-34.6-53.6-50.3
	c-14.6-17.6-21.4-34.4-21.4-52.6c0-17.7,6.1-34.1,17.1-46.1c11.2-12.1,26.5-18.8,43.2-18.8c12.5,0,23.9,3.9,33.9,11.7
	c5.1,3.9,9.7,8.7,13.7,14.3c4.1-5.6,8.6-10.4,13.7-14.3c10.1-7.8,21.5-11.7,33.9-11.7c16.7,0,32,6.7,43.2,18.8
	c11,12,17.1,28.4,17.1,46.1c0,18.3-6.8,35-21.4,52.6c-13.1,15.8-31.9,31.8-53.6,50.3c-7.4,6.3-15.9,13.5-24.6,21.2
	C268,377.4,265.1,378.5,262,378.5z M214.3,199c-13.1,0-25.1,5.2-33.9,14.7c-8.9,9.6-13.8,23-13.8,37.5c0,15.4,5.7,29.1,18.5,44.6
	c12.4,14.9,30.8,30.6,52.1,48.8l0,0c7.5,6.3,15.9,13.5,24.7,21.2c8.8-7.7,17.3-14.9,24.8-21.3c21.3-18.2,39.7-33.8,52.1-48.8
	c12.8-15.4,18.5-29.2,18.5-44.6c0-14.6-4.9-27.9-13.8-37.5c-8.8-9.5-20.8-14.7-33.9-14.7c-9.6,0-18.4,3.1-26.2,9.1
	c-6.9,5.4-11.8,12.1-14.6,16.9c-1.5,2.4-4,3.9-6.9,3.9s-5.4-1.5-6.9-3.9c-2.8-4.7-7.7-11.5-14.6-16.9C232.8,202,223.9,199,214.3,199
	z"/>
</svg>
