<?xml version="1.0" encoding="utf-8"?>
<!-- Generator: Adobe Illustrator 21.0.0, SVG Export Plug-In . SVG Version: 6.00 Build 0)  -->
<svg version="1.1" id="Layer_1" xmlns="http://www.w3.org/2000/svg" xmlns:xlink="http://www.w3.org/1999/xlink" x="0px" y="0px"
	 viewBox="0 0 496 496" style="enable-background:new 0 0 496 496;" xml:space="preserve">
<style type="text/css">
	.st0{fill:none;stroke:#040000;stroke-width:15;stroke-miterlimit:10;}
</style>
<path class="st0" d="M248,104c-39.7,0-72,32.3-72,72c0,24,12.2,46.5,32,59.8V264h80v-28.2c19.8-13.3,32-35.8,32-59.8
	C320,136.3,287.7,104,248,104z"/>
<g>
	<path d="M112,144c0-23.9-15.1-44.3-36.2-52.3C92.4,84.1,104,67.4,104,48c0-26.5-21.5-48-48-48S8,21.5,8,48
		c0,19.4,11.6,36.1,28.2,43.7C15.1,99.7,0,120.1,0,144v24h112V144z M24,48c0-17.6,14.4-32,32-32s32,14.4,32,32S73.6,80,56,80
		S24,65.6,24,48z M96,152H16v-8c0-22.1,17.9-40,40-40s40,17.9,40,40V152z"/>
	<path d="M267.8,419.7c16.6-7.6,28.2-24.3,28.2-43.7c0-26.5-21.5-48-48-48s-48,21.5-48,48c0,19.4,11.6,36.1,28.2,43.7
		c-21.1,8-36.2,28.4-36.2,52.3v24h112v-24C304,448.1,288.9,427.7,267.8,419.7z M216,376c0-17.6,14.4-32,32-32s32,14.4,32,32
		s-14.4,32-32,32S216,393.6,216,376z M288,480h-80v-8c0-22.1,17.9-40,40-40s40,17.9,40,40V480z"/>
	<path d="M459.8,91.7C476.4,84.1,488,67.4,488,48c0-26.5-21.5-48-48-48s-48,21.5-48,48c0,19.4,11.6,36.1,28.2,43.7
		c-21.1,8-36.2,28.4-36.2,52.3v24h112v-24C496,120.1,480.9,99.7,459.8,91.7z M408,48c0-17.6,14.4-32,32-32s32,14.4,32,32
		s-14.4,32-32,32S408,65.6,408,48z M480,152h-80v-8c0-22.1,17.9-40,40-40s40,17.9,40,40V152z"/>
	<rect x="273.5" y="272" transform="matrix(0.5635 -0.8261 0.8261 0.5635 -65.4331 436.1604)" width="213" height="16"/>
	<rect x="108" y="173.5" transform="matrix(0.8262 -0.5633 0.5633 0.8262 -137.5776 113.9958)" width="16" height="213"/>
	<rect x="134.4" y="16" width="227.2" height="16"/>
	<path d="M284,256.9h-28v-49.5c9.3-3.3,16-12.1,16-22.5c0-13.2-10.8-24-24-24s-24,10.8-24,24c0,10.4,6.7,19.2,16,22.5v49.5h-28
		c-11,0-20,9-20,20c0,7.1,3.8,13.3,9.4,16.9c-0.8,2.2-1.4,4.6-1.4,7.1c0,11,9,20,20,20h56c11,0,20-9,20-20c0-2.5-0.5-4.9-1.4-7.1
		c5.6-3.6,9.4-9.8,9.4-16.9C304,265.9,295,256.9,284,256.9z M248,176.9c4.4,0,8,3.6,8,8s-3.6,8-8,8s-8-3.6-8-8
		S243.6,176.9,248,176.9z M212,272.9h72c2.2,0,4,1.8,4,4s-1.8,4-4,4h-8h-56h-8c-2.2,0-4-1.8-4-4S209.8,272.9,212,272.9z M276,304.9
		h-56c-2.2,0-4-1.8-4-4s1.8-4,4-4h56c2.2,0,4,1.8,4,4S278.2,304.9,276,304.9z"/>
	<rect x="240" y="56" width="16" height="32"/>
	<rect x="188" y="69.9" transform="matrix(0.8661 -0.4999 0.4999 0.8661 -16.7134 109.4873)" width="16" height="32"/>
	<rect x="149.9" y="108" transform="matrix(0.4999 -0.8661 0.8661 0.4999 -28.4389 198.8104)" width="16" height="32"/>
	<rect x="128" y="168" width="32" height="16"/>
	<rect x="141.9" y="220" transform="matrix(0.8661 -0.4999 0.4999 0.8661 -92.8298 109.4813)" width="32" height="16"/>
	<rect x="330.1" y="212" transform="matrix(0.4999 -0.8661 0.8661 0.4999 -28.3991 406.8172)" width="16" height="32"/>
	<rect x="336" y="168" width="32" height="16"/>
	<rect x="322.1" y="116" transform="matrix(0.8661 -0.4999 0.4999 0.8661 -16.7133 185.6099)" width="32" height="16"/>
	<rect x="284" y="77.9" transform="matrix(0.5 -0.866 0.866 0.5 75.5893 302.7567)" width="32" height="16"/>
</g>
</svg>
